<svg width="18" height="18" viewBox="0 0 18 18" fill="none" xmlns="http://www.w3.org/2000/svg">
<g clip-path="url(#clip0_52_134)">
<path fill-rule="evenodd" clip-rule="evenodd" d="M11.95 8.5L7 14H13.5V10.22L11.95 8.5Z" fill="#36A9E1"/>
<path fill-rule="evenodd" clip-rule="evenodd" d="M9 6.5C8.86739 6.5 8.74022 6.55268 8.64645 6.64645C8.55269 6.74021 8.5 6.86739 8.5 7C8.5 7.13261 8.55269 7.25979 8.64645 7.35355C8.74022 7.44732 8.86739 7.5 9 7.5C9.13261 7.5 9.25979 7.44732 9.35356 7.35355C9.44733 7.25979 9.5 7.13261 9.5 7C9.5 6.86739 9.44733 6.74021 9.35356 6.64645C9.25979 6.55268 9.13261 6.5 9 6.5Z" fill="#36A9E1"/>
<path fill-rule="evenodd" clip-rule="evenodd" d="M6.83 9.5L4 12.21V14H5.45L8.5 10.81L6.83 9.5Z" fill="#36A9E1"/>
<path fill-rule="evenodd" clip-rule="evenodd" d="M4 4V10.5L6.28 8.4C6.37459 8.32284 6.49293 8.2807 6.61501 8.2807C6.73708 8.2807 6.8554 8.32284 6.95 8.4L9 9.95L11.54 7.39C11.5872 7.33911 11.6445 7.2986 11.7082 7.27106C11.7719 7.24351 11.8406 7.22953 11.91 7.23C11.9809 7.22935 12.0512 7.24321 12.1165 7.27073C12.1819 7.29824 12.2409 7.33883 12.29 7.39L13.49 8.61V4.04L4 4ZM8.75 5.07C9.06569 5.07058 9.37387 5.16631 9.63432 5.3447C9.89477 5.52309 10.0954 5.77585 10.21 6.07C10.3299 6.36219 10.3607 6.68334 10.2984 6.99298C10.2361 7.30262 10.0836 7.58689 9.86 7.81C9.71355 7.95835 9.53919 8.07626 9.34697 8.15692C9.15475 8.23759 8.94847 8.27942 8.74001 8.28C8.53288 8.28126 8.32802 8.23688 8.14 8.15C7.79937 8.00959 7.51808 7.75524 7.34419 7.43042C7.1703 7.1056 7.11462 6.73047 7.18665 6.36915C7.25867 6.00782 7.45394 5.68273 7.73909 5.44942C8.02424 5.21611 8.38157 5.08906 8.75 5.09V5.07Z" fill="#36A9E1"/>
<path fill-rule="evenodd" clip-rule="evenodd" d="M0.5201 8.8957e-09C0.450963 -1.27765e-05 0.382511 0.0137565 0.318761 0.0405121C0.255011 0.0672676 0.197243 0.106472 0.148824 0.155823C0.100404 0.205173 0.0623148 0.263679 0.0367783 0.327927C0.0112417 0.392175 -0.00123344 0.460875 9.61225e-05 0.529999V2.67C-0.00123344 2.73912 0.0112417 2.80781 0.0367783 2.87206C0.0623148 2.93631 0.100404 2.99482 0.148824 3.04417C0.197243 3.09352 0.255011 3.13273 0.318761 3.15948C0.382511 3.18624 0.450963 3.20001 0.5201 3.2C0.660665 3.2 0.795477 3.25584 0.894872 3.35523C0.994266 3.45463 1.0501 3.58943 1.0501 3.73C1.0501 3.87056 0.994266 4.00537 0.894872 4.10477C0.795477 4.20416 0.660665 4.25999 0.5201 4.25999C0.382188 4.25999 0.249928 4.31478 0.152409 4.4123C0.0548904 4.50982 9.61225e-05 4.64209 9.61225e-05 4.78V7.95C-0.00123344 8.01912 0.0112417 8.08782 0.0367783 8.15207C0.0623148 8.21632 0.100404 8.27482 0.148824 8.32417C0.197243 8.37352 0.255011 8.41273 0.318761 8.43948C0.382511 8.46624 0.450963 8.48001 0.5201 8.48C0.600016 8.4519 0.685507 8.44337 0.769399 8.45512C0.85329 8.46687 0.93314 8.49856 1.00226 8.54752C1.07139 8.59649 1.12775 8.66132 1.16666 8.73656C1.20557 8.81181 1.22588 8.89528 1.22588 8.98C1.22588 9.06471 1.20557 9.14819 1.16666 9.22343C1.12775 9.29868 1.07139 9.3635 1.00226 9.41247C0.93314 9.46144 0.85329 9.49313 0.769399 9.50488C0.685507 9.51662 0.600016 9.50809 0.5201 9.48C0.450963 9.47998 0.382511 9.49376 0.318761 9.52052C0.255011 9.54727 0.197243 9.58647 0.148824 9.63582C0.100404 9.68517 0.0623148 9.74368 0.0367783 9.80793C0.0112417 9.87218 -0.00123344 9.94087 9.61225e-05 10.01V13.17C-0.00123344 13.2391 0.0112417 13.3078 0.0367783 13.3721C0.0623148 13.4363 0.100404 13.4948 0.148824 13.5442C0.197243 13.5935 0.255011 13.6327 0.318761 13.6595C0.382511 13.6862 0.450963 13.7 0.5201 13.7C0.600016 13.6719 0.685507 13.6634 0.769399 13.6751C0.85329 13.6869 0.93314 13.7186 1.00226 13.7675C1.07139 13.8165 1.12775 13.8813 1.16666 13.9566C1.20557 14.0318 1.22588 14.1153 1.22588 14.2C1.22588 14.2847 1.20557 14.3682 1.16666 14.4434C1.12775 14.5187 1.07139 14.5835 1.00226 14.6325C0.93314 14.6814 0.85329 14.7131 0.769399 14.7249C0.685507 14.7366 0.600016 14.7281 0.5201 14.7C0.450963 14.7 0.382511 14.7138 0.318761 14.7405C0.255011 14.7673 0.197243 14.8065 0.148824 14.8558C0.100404 14.9052 0.0623148 14.9637 0.0367783 15.0279C0.0112417 15.0922 -0.00123344 15.1609 9.61225e-05 15.23V17.38C9.61225e-05 17.5179 0.0548904 17.6502 0.152409 17.7477C0.249928 17.8452 0.382188 17.9 0.5201 17.9H2.67009C2.80801 17.9 2.94027 17.8452 3.03779 17.7477C3.1353 17.6502 3.1901 17.5179 3.1901 17.38C3.1901 17.2394 3.24593 17.1046 3.34533 17.0052C3.44472 16.9058 3.57953 16.85 3.7201 16.85C3.86066 16.85 3.99547 16.9058 4.09487 17.0052C4.19426 17.1046 4.2501 17.2394 4.2501 17.38C4.25008 17.4491 4.26385 17.5176 4.29061 17.5813C4.31736 17.6451 4.35657 17.7029 4.40592 17.7513C4.45527 17.7997 4.51377 17.8378 4.57802 17.8633C4.64227 17.8889 4.71097 17.9013 4.7801 17.9H7.9401C8.00922 17.9013 8.07792 17.8889 8.14217 17.8633C8.20642 17.8378 8.26492 17.7997 8.31427 17.7513C8.36363 17.7029 8.40283 17.6451 8.42959 17.5813C8.45634 17.5176 8.47011 17.4491 8.4701 17.38C8.45972 17.305 8.46554 17.2286 8.48717 17.156C8.5088 17.0834 8.54573 17.0163 8.59548 16.9592C8.64523 16.9021 8.70663 16.8563 8.77556 16.825C8.8445 16.7936 8.91936 16.7774 8.99509 16.7774C9.07083 16.7774 9.14569 16.7936 9.21462 16.825C9.28355 16.8563 9.34497 16.9021 9.39472 16.9592C9.44447 17.0163 9.4814 17.0834 9.50303 17.156C9.52465 17.2286 9.53048 17.305 9.5201 17.38C9.52009 17.4491 9.53386 17.5176 9.56061 17.5813C9.58737 17.6451 9.62657 17.7029 9.67592 17.7513C9.72527 17.7997 9.78378 17.8378 9.84803 17.8633C9.91228 17.8889 9.98098 17.9013 10.0501 17.9H13.2201C13.2892 17.9013 13.3579 17.8889 13.4222 17.8633C13.4864 17.8378 13.5449 17.7997 13.5943 17.7513C13.6436 17.7029 13.6828 17.6451 13.7096 17.5813C13.7363 17.5176 13.7501 17.4491 13.7501 17.38C13.7501 17.2394 13.8059 17.1046 13.9053 17.0052C14.0047 16.9058 14.1395 16.85 14.2801 16.85C14.4207 16.85 14.5555 16.9058 14.6549 17.0052C14.7543 17.1046 14.8101 17.2394 14.8101 17.38C14.8101 17.5179 14.8649 17.6502 14.9624 17.7477C15.0599 17.8452 15.1922 17.9 15.3301 17.9H17.4801C17.618 17.9 17.7503 17.8452 17.8478 17.7477C17.9453 17.6502 18.0001 17.5179 18.0001 17.38V15.23C18.0014 15.1609 17.989 15.0922 17.9634 15.0279C17.9379 14.9637 17.8998 14.9052 17.8514 14.8558C17.8029 14.8065 17.7452 14.7673 17.6814 14.7405C17.6177 14.7138 17.5492 14.7 17.4801 14.7C17.4002 14.7281 17.3147 14.7366 17.2308 14.7249C17.1469 14.7131 17.0671 14.6814 16.9979 14.6325C16.9288 14.5835 16.8724 14.5187 16.8335 14.4434C16.7946 14.3682 16.7743 14.2847 16.7743 14.2C16.7743 14.1153 16.7946 14.0318 16.8335 13.9566C16.8724 13.8813 16.9288 13.8165 16.9979 13.7675C17.0671 13.7186 17.1469 13.6869 17.2308 13.6751C17.3147 13.6634 17.4002 13.6719 17.4801 13.7C17.5492 13.7 17.6177 13.6862 17.6814 13.6595C17.7452 13.6327 17.8029 13.5935 17.8514 13.5442C17.8998 13.4948 17.9379 13.4363 17.9634 13.3721C17.989 13.3078 18.0014 13.2391 18.0001 13.17V10.01C18.0014 9.94087 17.989 9.87218 17.9634 9.80793C17.9379 9.74368 17.8998 9.68517 17.8514 9.63582C17.8029 9.58647 17.7452 9.54727 17.6814 9.52052C17.6177 9.49376 17.5492 9.47998 17.4801 9.48C17.4002 9.50809 17.3147 9.51662 17.2308 9.50488C17.1469 9.49313 17.0671 9.46144 16.9979 9.41247C16.9288 9.3635 16.8724 9.29868 16.8335 9.22343C16.7946 9.14819 16.7743 9.06471 16.7743 8.98C16.7743 8.89528 16.7946 8.81181 16.8335 8.73656C16.8724 8.66132 16.9288 8.59649 16.9979 8.54752C17.0671 8.49856 17.1469 8.46687 17.2308 8.45512C17.3147 8.44337 17.4002 8.4519 17.4801 8.48C17.5492 8.48001 17.6177 8.46624 17.6814 8.43948C17.7452 8.41273 17.8029 8.37352 17.8514 8.32417C17.8998 8.27482 17.9379 8.21632 17.9634 8.15207C17.989 8.08782 18.0014 8.01912 18.0001 7.95V4.78C18.0001 4.64209 17.9453 4.50982 17.8478 4.4123C17.7503 4.31478 17.618 4.25999 17.4801 4.25999C17.3395 4.25999 17.2047 4.20416 17.1053 4.10477C17.0059 4.00537 16.9501 3.87056 16.9501 3.73C16.9501 3.58943 17.0059 3.45463 17.1053 3.35523C17.2047 3.25584 17.3395 3.2 17.4801 3.2C17.5492 3.20001 17.6177 3.18624 17.6814 3.15948C17.7452 3.13273 17.8029 3.09352 17.8514 3.04417C17.8998 2.99482 17.9379 2.93631 17.9634 2.87206C17.989 2.80781 18.0014 2.73912 18.0001 2.67V0.529999C18.0014 0.460875 17.989 0.392175 17.9634 0.327927C17.9379 0.263679 17.8998 0.205173 17.8514 0.155823C17.8029 0.106472 17.7452 0.0672676 17.6814 0.0405121C17.6177 0.0137565 17.5492 -1.27765e-05 17.4801 8.8957e-09H15.3201C15.251 -1.27765e-05 15.1825 0.0137565 15.1188 0.0405121C15.055 0.0672676 14.9972 0.106472 14.9488 0.155823C14.9004 0.205173 14.8623 0.263679 14.8368 0.327927C14.8112 0.392175 14.7988 0.460875 14.8001 0.529999C14.8001 0.670564 14.7443 0.805368 14.6449 0.904762C14.5455 1.00416 14.4107 1.06 14.2701 1.06C14.1295 1.06 13.9947 1.00416 13.8953 0.904762C13.7959 0.805368 13.7401 0.670564 13.7401 0.529999C13.7401 0.389434 13.6843 0.25463 13.5849 0.155235C13.4855 0.055841 13.3507 8.8957e-09 13.2101 8.8957e-09H10.0501C9.90953 8.89571e-09 9.77472 0.055841 9.67533 0.155235C9.57593 0.25463 9.5201 0.389434 9.5201 0.529999C9.53048 0.605021 9.52465 0.681392 9.50303 0.753975C9.4814 0.826558 9.44447 0.893662 9.39472 0.950768C9.34497 1.00787 9.28355 1.05365 9.21462 1.08502C9.14569 1.11639 9.07083 1.13263 8.99509 1.13263C8.91936 1.13263 8.8445 1.11639 8.77556 1.08502C8.70663 1.05365 8.64523 1.00787 8.59548 0.950768C8.54573 0.893662 8.5088 0.826558 8.48717 0.753975C8.46554 0.681392 8.45972 0.605021 8.4701 0.529999C8.4701 0.389434 8.41426 0.25463 8.31487 0.155235C8.21548 0.055841 8.08066 8.8957e-09 7.9401 8.8957e-09H4.7801C4.63953 8.89571e-09 4.50472 0.055841 4.40532 0.155235C4.30593 0.25463 4.2501 0.389434 4.2501 0.529999C4.2501 0.670564 4.19426 0.805368 4.09487 0.904762C3.99547 1.00416 3.86066 1.06 3.7201 1.06C3.57953 1.06 3.44472 1.00416 3.34533 0.904762C3.24593 0.805368 3.1901 0.670564 3.1901 0.529999C3.19143 0.460875 3.17895 0.392175 3.15342 0.327927C3.12788 0.263679 3.08979 0.205173 3.04137 0.155823C2.99295 0.106472 2.93518 0.0672676 2.87143 0.0405121C2.80768 0.0137565 2.73923 -1.27765e-05 2.67009 8.8957e-09H0.5201ZM14.2701 3.2C14.4107 3.2 14.5455 3.25584 14.6449 3.35523C14.7443 3.45463 14.8001 3.58943 14.8001 3.73V14.28C14.8001 14.3491 14.7863 14.4176 14.7596 14.4813C14.7328 14.5451 14.6936 14.6029 14.6443 14.6513C14.5949 14.6997 14.5364 14.7378 14.4722 14.7633C14.4079 14.7889 14.3392 14.8013 14.2701 14.8H3.7201C3.65097 14.8013 3.58227 14.7889 3.51803 14.7633C3.45378 14.7378 3.39527 14.6997 3.34592 14.6513C3.29657 14.6029 3.25737 14.5451 3.23061 14.4813C3.20386 14.4176 3.19009 14.3491 3.1901 14.28V3.73C3.1901 3.58943 3.24593 3.45463 3.34533 3.35523C3.44472 3.25584 3.57953 3.2 3.7201 3.2H14.2701Z" fill="#36A9E1"/>
</g>
<defs>
<clipPath id="clip0_52_134">
<rect width="18" height="18" fill="white"/>
</clipPath>
</defs>
</svg>
