<svg width="30" height="30" viewBox="0 0 30 30" fill="none" xmlns="http://www.w3.org/2000/svg">
<g clip-path="url(#clip0_61_447)">
<path fill-rule="evenodd" clip-rule="evenodd" d="M10.95 10C10.7197 9.99977 10.4984 10.0895 10.3333 10.25C10.1763 10.4169 10.0889 10.6375 10.0889 10.8667C10.0889 11.0959 10.1763 11.3164 10.3333 11.4833L13.1833 14.3833C13.3442 14.5483 13.4342 14.7696 13.4342 15C13.4342 15.2304 13.3442 15.4517 13.1833 15.6167L10.3333 18.5667C10.1763 18.7336 10.0889 18.9542 10.0889 19.1833C10.0889 19.4125 10.1763 19.6331 10.3333 19.8C10.4984 19.9605 10.7197 20.0502 10.95 20.05C11.1752 20.0495 11.391 19.9595 11.55 19.8L14.4 17C14.5593 16.8412 14.7751 16.7521 15 16.7521C15.2249 16.7521 15.4407 16.8412 15.6 17L18.45 19.8C18.6093 19.9588 18.8251 20.0479 19.05 20.0479C19.2749 20.0479 19.4907 19.9588 19.65 19.8C19.8071 19.6331 19.8945 19.4125 19.8945 19.1833C19.8945 18.9542 19.8071 18.7336 19.65 18.5667L16.7834 15.6667C16.6225 15.5017 16.5325 15.2804 16.5325 15.05C16.5325 14.8196 16.6225 14.5983 16.7834 14.4333L19.65 11.5333C19.8071 11.3664 19.8945 11.1459 19.8945 10.9167C19.8945 10.6875 19.8071 10.4669 19.65 10.3C19.4907 10.1412 19.2749 10.0521 19.05 10.0521C18.8251 10.0521 18.6093 10.1412 18.45 10.3L15.6 13.1C15.4407 13.2588 15.2249 13.3479 15 13.3479C14.7751 13.3479 14.5593 13.2588 14.4 13.1L11.55 10.2333C11.3884 10.0799 11.1729 9.99611 10.95 10Z" fill="#E94E1B"/>
<path fill-rule="evenodd" clip-rule="evenodd" d="M15 0.000242756C11.4933 -0.0312052 8.0844 1.15623 5.35611 3.35961C2.62782 5.56298 0.749463 8.6455 0.0420617 12.0803C-0.66534 15.5151 -0.157863 19.089 1.47776 22.1912C3.11339 25.2933 5.77563 27.7311 9.00945 29.0878C12.2433 30.4446 15.8479 30.6362 19.2073 29.6297C22.5667 28.6233 25.4723 26.4814 27.4275 23.5701C29.3826 20.6588 30.266 17.1588 29.9266 13.6684C29.5872 10.1779 28.0461 6.91368 25.5667 4.43357C22.77 1.61564 18.9702 0.021399 15 0.000242756ZM19.1667 8.20024C19.6889 8.1984 20.1998 8.35185 20.6345 8.64108C21.0693 8.93031 21.4083 9.34225 21.6083 9.82458C21.8084 10.3069 21.8606 10.8378 21.7582 11.3499C21.6558 11.8619 21.4035 12.3319 21.0333 12.7002L18.7334 15.0002L21.0333 17.3002C21.4093 17.6676 21.6667 18.1391 21.7725 18.654C21.8782 19.1689 21.8274 19.7037 21.6267 20.1895C21.4259 20.6753 21.0843 21.0899 20.6459 21.3799C20.2075 21.67 19.6923 21.8221 19.1667 21.8169C18.8219 21.8146 18.481 21.7443 18.1635 21.6099C17.846 21.4754 17.5582 21.2796 17.3167 21.0336L15 18.8169L12.7 21.0336C12.206 21.5314 11.5347 21.8131 10.8334 21.8169C10.3113 21.8141 9.80173 21.6572 9.36856 21.3658C8.93539 21.0744 8.59793 20.6616 8.39854 20.1791C8.19914 19.6966 8.1467 19.166 8.24778 18.6539C8.34886 18.1417 8.59896 17.6708 8.9667 17.3002L11.2667 15.0002L8.9667 12.7002C8.72078 12.4556 8.52564 12.1647 8.39248 11.8443C8.25933 11.524 8.19079 11.1805 8.19079 10.8336C8.19079 10.4867 8.25933 10.1432 8.39248 9.82282C8.52564 9.50248 8.72078 9.2116 8.9667 8.9669C9.46024 8.47533 10.1284 8.19932 10.825 8.19932C11.5216 8.19932 12.1898 8.47533 12.6834 8.9669L15 11.1836L17.3167 8.9669C17.5579 8.72165 17.846 8.52741 18.1638 8.3957C18.4816 8.264 18.8227 8.19753 19.1667 8.20024Z" fill="#E94E1B"/>
</g>
<defs>
<clipPath id="clip0_61_447">
<rect width="30" height="30" fill="white"/>
</clipPath>
</defs>
</svg>
