<svg width="18" height="19" viewBox="0 0 18 19" fill="none" xmlns="http://www.w3.org/2000/svg">
<g clip-path="url(#clip0_52_132)">
<path fill-rule="evenodd" clip-rule="evenodd" d="M7.89994 6.40415e-05C7.78131 0.00146197 7.66657 0.0426191 7.5741 0.116954C7.48164 0.191289 7.41679 0.294499 7.38994 0.41006L7.16993 1.41006C6.31837 1.60287 5.50646 1.94117 4.76993 2.41006L4.00994 1.94007C3.92762 1.89349 3.83451 1.86935 3.73993 1.87007C3.67134 1.8689 3.60322 1.88158 3.53965 1.90735C3.47607 1.93313 3.41835 1.97146 3.36994 2.02006L1.86994 3.56006C1.78647 3.64658 1.73425 3.75849 1.72157 3.87804C1.70889 3.99759 1.73647 4.11796 1.79994 4.22007L2.24994 5.00006C1.78168 5.7657 1.44375 6.60376 1.24994 7.48006L0.389936 7.70006C0.27367 7.72759 0.170434 7.79432 0.0975852 7.88903C0.0247368 7.98373 -0.0132802 8.10063 -0.0100655 8.22007V10.3901C-0.0125375 10.509 0.0243587 10.6255 0.0948844 10.7213C0.16541 10.8172 0.265615 10.887 0.379934 10.9201L1.24994 11.1401C1.4455 12.0127 1.78335 12.8472 2.24994 13.6101L1.78994 14.3901C1.73021 14.4957 1.70575 14.6177 1.72014 14.7382C1.73453 14.8587 1.78701 14.9714 1.86994 15.0601L3.36994 16.5901C3.41786 16.64 3.47527 16.6799 3.5388 16.7074C3.60234 16.7349 3.67072 16.7494 3.73993 16.7501C3.83528 16.7468 3.92822 16.7193 4.00994 16.6701L4.76993 16.2001C5.50646 16.669 6.31837 17.0073 7.16993 17.2001L7.38994 18.0901C7.41679 18.2056 7.48164 18.3088 7.5741 18.3832C7.66657 18.4575 7.78131 18.4987 7.89994 18.5001H10.0099C10.1286 18.4987 10.2433 18.4575 10.3358 18.3832C10.4282 18.3088 10.4931 18.2056 10.5199 18.0901L10.7399 17.2001C11.5921 17.009 12.4043 16.6706 13.1399 16.2001L13.9099 16.6701C13.9904 16.722 14.0841 16.7498 14.1799 16.7501C14.3193 16.7465 14.4519 16.6892 14.5499 16.5901L16.0399 15.0601C16.122 14.973 16.1741 14.862 16.1885 14.7432C16.2029 14.6244 16.1789 14.5042 16.1199 14.4001L15.6399 13.6401C16.1078 12.8778 16.4458 12.0431 16.6399 11.1701L17.5699 10.9501C17.6861 10.9189 17.7886 10.8498 17.861 10.7538C17.9335 10.6578 17.9718 10.5403 17.9699 10.4201V8.20006C17.9849 8.08333 17.9606 7.96493 17.9009 7.86354C17.8411 7.76214 17.7493 7.68352 17.6399 7.64006L16.7099 7.42006C16.5203 6.54246 16.1821 5.70373 15.7099 4.94007L16.1699 4.16006C16.2305 4.05639 16.2554 3.93577 16.2409 3.81661C16.2265 3.69744 16.1735 3.58627 16.0899 3.50006L14.5999 1.97007C14.5527 1.91918 14.4955 1.87867 14.4318 1.85112C14.3681 1.82358 14.2993 1.80959 14.2299 1.81006C14.1351 1.80731 14.0415 1.83159 13.9599 1.88006L13.1999 2.35006C12.4577 1.88529 11.6432 1.54733 10.7899 1.35006L10.5699 0.350063C10.5447 0.233649 10.4803 0.129411 10.3875 0.0547821C10.2947 -0.0198467 10.179 -0.0603383 10.0599 -0.0599335L7.89994 6.40415e-05ZM8.95994 4.41006C9.93023 4.3842 10.8862 4.64829 11.7056 5.16855C12.525 5.68881 13.1707 6.44161 13.5601 7.33073C13.9494 8.21984 14.0648 9.20488 13.8915 10.1599C13.7181 11.1149 13.2639 11.9966 12.5869 12.6921C11.9099 13.3877 11.0408 13.8655 10.0908 14.0646C9.1408 14.2637 8.15302 14.1749 7.25371 13.8097C6.35441 13.4445 5.58446 12.8194 5.04226 12.0143C4.50007 11.2092 4.21028 10.2607 4.20994 9.29006C4.20068 8.65756 4.31628 8.02944 4.55012 7.44167C4.78395 6.8539 5.13142 6.31803 5.57264 5.86473C6.01386 5.41144 6.54015 5.04963 7.1214 4.80001C7.70264 4.5504 8.32741 4.41788 8.95994 4.41006Z" fill="#36A9E1"/>
</g>
<defs>
<clipPath id="clip0_52_132">
<rect width="18" height="18.5" fill="white"/>
</clipPath>
</defs>
</svg>
