<svg width="30" height="30" viewBox="0 0 30 30" fill="none" xmlns="http://www.w3.org/2000/svg">
<g clip-path="url(#clip0_61_469)">
<path fill-rule="evenodd" clip-rule="evenodd" d="M14.9999 0C13.0233 0.00966522 11.069 0.406642 9.25353 1.16725C7.43808 1.92785 5.7987 3.03649 4.43323 4.42702C1.61107 7.24863 0.0319824 11.0304 0.0319824 14.9676C0.0319824 18.9047 1.61107 22.6865 4.43323 25.5081C5.79294 26.9057 7.43124 28.0189 9.24804 28.7797C11.0648 29.5404 13.022 29.9328 14.9999 29.9328C16.9778 29.9328 18.9349 29.5404 20.7517 28.7797C22.5685 28.0189 24.2068 26.9057 25.5665 25.5081C28.3887 22.6865 29.9678 18.9047 29.9678 14.9676C29.9678 11.0304 28.3887 7.24863 25.5665 4.42702C24.2011 3.03649 22.5617 1.92785 20.7462 1.16725C18.9308 0.406642 16.9765 0.00966522 14.9999 0ZM19.8166 9.32432C20.1655 9.32557 20.5105 9.39512 20.8312 9.52885C21.1519 9.66257 21.4417 9.85773 21.6832 10.1027C22.1821 10.6021 22.4612 11.2711 22.4612 11.9676C22.4612 12.664 22.1821 13.333 21.6832 13.8324L15.6165 19.8973C15.3733 20.1401 15.0832 20.3338 14.7629 20.4674C14.4426 20.6009 14.0984 20.6717 13.7499 20.6757C13.4047 20.6762 13.063 20.609 12.7451 20.478C12.4272 20.3471 12.1398 20.1551 11.8999 19.9135L8.36656 16.3946C8.09989 16.1508 7.8856 15.8579 7.73607 15.5329C7.58654 15.2079 7.50476 14.8573 7.49546 14.5014C7.48616 14.1455 7.54951 13.7913 7.68187 13.4593C7.81424 13.1274 8.01298 12.8243 8.26657 12.5676C8.50894 12.3248 8.7992 12.1321 9.11996 12.0012C9.44073 11.8702 9.78537 11.8036 10.1332 11.8054C10.5029 11.8026 10.8687 11.878 11.2054 12.0264C11.5421 12.1748 11.8416 12.3927 12.0832 12.6649L13.7499 14.2865L17.9832 10.054C18.2245 9.82104 18.5106 9.63665 18.8252 9.51143C19.1398 9.38621 19.4767 9.32263 19.8166 9.32432Z" fill="#3AAA35"/>
<path fill-rule="evenodd" clip-rule="evenodd" d="M19.6832 11.3514C19.5689 11.3495 19.4554 11.37 19.3494 11.4118C19.2435 11.4536 19.1473 11.5158 19.0666 11.5946L14.3333 16.1027C14.2526 16.1815 14.1564 16.2437 14.0504 16.2855C13.9444 16.3273 13.8309 16.3478 13.7166 16.3459C13.4914 16.3454 13.2755 16.2579 13.1166 16.1027L10.9166 14.027C10.834 13.9341 10.7316 13.8598 10.6164 13.8093C10.5013 13.7589 10.3762 13.7336 10.2499 13.7351C10.0247 13.7357 9.8089 13.8232 9.64992 13.9784C9.56163 14.053 9.49082 14.1451 9.4423 14.2486C9.39378 14.3522 9.36865 14.4646 9.36865 14.5784C9.36865 14.6921 9.39378 14.8046 9.4423 14.9081C9.49082 15.0116 9.56163 15.1038 9.64992 15.1784L13.1332 18.4216C13.2959 18.5694 13.5107 18.6507 13.7333 18.6486C13.9488 18.6611 14.1617 18.5978 14.3333 18.4703L20.3166 12.8108C20.4719 12.7041 20.585 12.549 20.6373 12.3712C20.6895 12.1933 20.6776 12.0034 20.6037 11.833C20.5298 11.6626 20.3981 11.522 20.2307 11.4344C20.0633 11.3467 19.8701 11.3175 19.6832 11.3514Z" fill="#3AAA35"/>
</g>
<defs>
<clipPath id="clip0_61_469">
<rect width="30" height="30" fill="white"/>
</clipPath>
</defs>
</svg>
