<svg width="140" height="38" viewBox="0 0 140 38" fill="none" xmlns="http://www.w3.org/2000/svg">
<path d="M132.135 0H100.421C96.2756 0 92.9153 3.45636 92.9153 7.72V30.02C92.9153 34.2836 96.2756 37.74 100.421 37.74H132.135C136.28 37.74 139.64 34.2836 139.64 30.02V7.72C139.64 3.45636 136.28 0 132.135 0Z" fill="#36A9E1"/>
<path d="M9.24583 31.67C7.5179 31.6975 5.79341 31.5027 4.1125 31.09C2.70666 30.7316 1.33134 30.2567 0 29.67V23.45H0.583332C1.83459 24.5489 3.26242 25.4152 4.80277 26.01C6.22819 26.5862 7.74356 26.8912 9.275 26.91C9.75981 26.9007 10.2436 26.8606 10.7236 26.79C11.2223 26.733 11.7103 26.6016 12.1722 26.4C12.6025 26.2066 12.9871 25.9201 13.3 25.56C13.6184 25.1653 13.7815 24.6622 13.7569 24.15C13.7604 23.842 13.6946 23.5374 13.5647 23.2599C13.4349 22.9823 13.2445 22.7394 13.0083 22.55C12.4759 22.125 11.8634 21.8185 11.2097 21.65C10.3444 21.42 9.42083 21.2 8.42916 20.99C7.49693 20.7901 6.57796 20.5295 5.67777 20.21C4.01339 19.7147 2.53493 18.7102 1.43888 17.33C0.54705 15.9983 0.0969586 14.406 0.155552 12.79C0.131591 11.6096 0.395815 10.4419 0.924038 9.39371C1.45226 8.34551 2.22762 7.45029 3.17916 6.79C5.3934 5.21535 8.04319 4.41911 10.7333 4.52001C12.2517 4.52183 13.7661 4.67928 15.2542 4.99001C16.6363 5.27287 17.9855 5.70527 19.2792 6.28V12.28H18.7153C17.6766 11.3939 16.5085 10.6818 15.2542 10.17C13.9221 9.60423 12.4953 9.31207 11.0542 9.31C10.5527 9.30539 10.0517 9.34554 9.55694 9.42999C9.06947 9.52912 8.59591 9.69037 8.14722 9.91001C7.74554 10.1003 7.39264 10.3846 7.11667 10.74C6.83377 11.0877 6.67888 11.5266 6.67916 11.98C6.67024 12.2814 6.7277 12.581 6.84723 12.8563C6.96677 13.1317 7.14529 13.3756 7.36944 13.57C8.17134 14.1202 9.07484 14.4947 10.0236 14.67L12.4931 15.25C13.3533 15.4536 14.2006 15.7108 15.0306 16.02C16.5361 16.5251 17.8802 17.441 18.9194 18.67C19.824 19.9349 20.2772 21.4817 20.2028 23.05C20.2345 24.2657 19.9807 25.4714 19.4628 26.5646C18.9449 27.6579 18.1782 28.6065 17.2278 29.33C14.8913 30.9951 12.0847 31.8179 9.24583 31.67Z" fill="#1D1D1B"/>
<path d="M30.5569 31.59C28.1167 31.59 26.3472 31.08 25.2292 30.05C24.1111 29.02 23.5667 27.33 23.5667 24.9799V15.75H21.2722V11.47H23.5667V5.81995H29.5458V11.47H35.3014V15.75H29.5361V22.75C29.5361 23.44 29.5361 24.05 29.5361 24.56C29.5408 25.0368 29.6332 25.5084 29.8083 25.95C29.9716 26.3725 30.2699 26.7252 30.6542 26.95C31.2048 27.2222 31.8137 27.346 32.4236 27.31C32.8485 27.2934 33.2697 27.2229 33.6778 27.0999C34.0531 27.0098 34.4181 26.8791 34.7667 26.7099H35.3014V31.05C34.6204 31.2325 33.9287 31.3694 33.2306 31.4599C32.343 31.5623 31.4499 31.6058 30.5569 31.59Z" fill="#1D1D1B"/>
<path d="M48.3291 29.11L47.2305 30.06C46.8249 30.3925 46.3847 30.6776 45.918 30.91C45.4172 31.1664 44.8929 31.3707 44.3527 31.52C43.6574 31.6803 42.9455 31.7509 42.2333 31.73C41.4477 31.7537 40.6658 31.6105 39.9365 31.3094C39.2072 31.0083 38.546 30.5557 37.9944 29.98C37.4394 29.3954 37.0046 28.7019 36.7156 27.9409C36.4266 27.1798 36.2895 26.3667 36.3124 25.55C36.2606 24.3036 36.5575 23.0681 37.168 21.99C37.7798 21.0566 38.6313 20.3158 39.6277 19.85C40.859 19.2696 42.1713 18.8917 43.5166 18.73C45.0235 18.51 46.6374 18.35 48.3777 18.23V18.13C48.4192 17.6761 48.3298 17.2197 48.1205 16.8177C47.9113 16.4158 47.5916 16.0861 47.2013 15.87C46.0941 15.3853 44.893 15.1697 43.6916 15.24C42.852 15.2636 42.0188 15.3981 41.2124 15.64C40.2653 15.9 39.339 16.2343 38.4416 16.64H37.936V11.88C38.8969 11.6178 39.8705 11.4075 40.8527 11.25C42.1719 11.0103 43.5089 10.8898 44.8485 10.89C48.1541 10.89 50.562 11.4567 52.0722 12.59C52.8363 13.1938 53.4432 13.9829 53.8385 14.8868C54.2338 15.7908 54.4052 16.7813 54.3374 17.77V31.2H48.3291V29.11ZM48.3291 26.06V21.94L45.8694 22.21C45.2395 22.2899 44.62 22.4408 44.0222 22.66C43.5402 22.8159 43.1139 23.1152 42.7972 23.52C42.4937 23.9634 42.3431 24.4984 42.3694 25.04C42.3262 25.3933 42.3693 25.752 42.4949 26.0838C42.6206 26.4156 42.8247 26.7099 43.0888 26.94C43.7382 27.331 44.4867 27.5121 45.2374 27.46C45.7917 27.4557 46.3386 27.3295 46.8416 27.09C47.3937 26.8415 47.8976 26.4926 48.3291 26.06Z" fill="#1D1D1B"/>
<path d="M71.5848 17.28H71.0889C70.7725 17.1826 70.4463 17.1222 70.1167 17.1C69.6792 17.1 69.2028 17.04 68.6778 17.04C68.0206 17.0463 67.367 17.1404 66.7334 17.32C66.0512 17.5056 65.3794 17.7293 64.7209 17.99V31.21H58.7417V11.47H64.7209V14.3C64.9931 14.04 65.3722 13.71 65.8584 13.3C66.2762 12.9538 66.7181 12.6396 67.1806 12.36C67.6589 12.0713 68.1678 11.8398 68.6973 11.67C69.2225 11.4817 69.7744 11.3838 70.3306 11.38H70.982C71.1968 11.3878 71.411 11.4079 71.6236 11.44L71.5848 17.28Z" fill="#1D1D1B"/>
<path d="M81.2291 31.59C78.7888 31.59 77.0193 31.08 75.9013 30.05C74.7832 29.02 74.2388 27.33 74.2388 24.9799V15.75H71.9443V11.47H74.2388V5.81995H80.2179V11.47H85.9832V15.75H80.2179V22.75C80.2179 23.44 80.2179 24.05 80.2179 24.56C80.2179 25.0373 80.3105 25.5098 80.4902 25.95C80.6478 26.376 80.9476 26.7305 81.336 26.95C81.8867 27.2222 82.4955 27.346 83.1054 27.31C83.5303 27.2934 83.9516 27.2229 84.3596 27.0999C84.7345 27.0081 85.0993 26.8774 85.4485 26.7099H85.9638V31.05C85.2828 31.2325 84.5911 31.3694 83.8929 31.4599C83.0086 31.5619 82.1188 31.6053 81.2291 31.59Z" fill="#1D1D1B"/>
<path d="M112.194 31.9501H98.4958V27.3801H102.151V10.3801H98.4958V5.81006H112.204V10.3801H108.549V27.3801H112.204L112.194 31.9501Z" fill="white"/>
<path d="M134.069 31.95H128.051V22.16C128.051 21.37 128.051 20.57 127.954 19.78C127.936 19.1803 127.818 18.5883 127.604 18.03C127.431 17.6011 127.118 17.2475 126.719 17.03C126.228 16.8174 125.697 16.7184 125.164 16.74C124.655 16.7459 124.152 16.8441 123.676 17.03C123.104 17.2483 122.564 17.5479 122.072 17.92V31.92H116.093V12.2099H122.072V14.39C122.947 13.6126 123.906 12.9416 124.931 12.39C125.889 11.9045 126.944 11.6579 128.012 11.67C128.855 11.6133 129.699 11.756 130.479 12.0871C131.259 12.4182 131.955 12.9289 132.514 13.58C133.646 15.175 134.197 17.1291 134.069 19.0999V31.95Z" fill="white"/>
</svg>
