<svg width="18" height="18" viewBox="0 0 18 18" fill="none" xmlns="http://www.w3.org/2000/svg">
<g clip-path="url(#clip0_52_148)">
<path fill-rule="evenodd" clip-rule="evenodd" d="M5 14V14.49C5.0078 14.8138 5.12158 15.126 5.32388 15.3789C5.52619 15.6318 5.80587 15.8113 6.12001 15.89C6.24924 16.4916 6.5808 17.0307 7.0594 17.4174C7.538 17.8041 8.1347 18.015 8.75 18.015C9.3653 18.015 9.96201 17.8041 10.4406 17.4174C10.9192 17.0307 11.2508 16.4916 11.38 15.89C11.6918 15.8069 11.9687 15.6262 12.1703 15.3742C12.3718 15.1223 12.4874 14.8124 12.5 14.49V14H5Z" fill="#36A9E1"/>
<path fill-rule="evenodd" clip-rule="evenodd" d="M9.11007 -4.24006e-05C8.6566 0.00278554 8.20448 0.0496719 7.76008 0.139957C6.58464 0.386014 5.50459 0.964454 4.64835 1.80651C3.79212 2.64856 3.19573 3.7188 2.93008 4.88996C2.71364 5.85741 2.73236 6.86266 2.98466 7.82138C3.23695 8.78011 3.71547 9.66436 4.38007 10.4C4.92031 10.9812 5.26933 11.7142 5.38007 12.5H12.8801C13.0034 11.7061 13.3503 10.9639 13.8801 10.36C14.9052 9.23537 15.4786 7.77162 15.4901 6.24996C15.469 4.57635 14.7859 2.97921 13.5903 1.80794C12.3946 0.636668 10.7838 -0.0133961 9.11007 -4.24006e-05ZM9.11007 2.08995C9.66115 2.08468 10.2079 2.18817 10.7189 2.3945C11.2299 2.60083 11.6952 2.90594 12.0881 3.29237C12.4811 3.67879 12.7939 4.13894 13.0087 4.64645C13.2235 5.15396 13.3362 5.69887 13.3401 6.24996C13.3401 6.39052 13.2842 6.52533 13.1848 6.62472C13.0854 6.72412 12.9506 6.77996 12.8101 6.77996C12.6695 6.77996 12.5347 6.72412 12.4353 6.62472C12.3359 6.52533 12.2801 6.39052 12.2801 6.24996C12.2721 5.41626 11.934 4.6197 11.3398 4.03487C10.7456 3.45003 9.94379 3.12462 9.11007 3.12995C8.97122 3.12998 8.8379 3.07552 8.73879 2.97827C8.63968 2.88103 8.58269 2.74878 8.58007 2.60996C8.58002 2.53995 8.59411 2.47066 8.62148 2.40623C8.64886 2.3418 8.68895 2.28356 8.73937 2.235C8.7898 2.18645 8.84951 2.14857 8.91492 2.12365C8.98034 2.09872 9.05013 2.08726 9.12008 2.08995H9.11007Z" fill="#36A9E1"/>
<path fill-rule="evenodd" clip-rule="evenodd" d="M0.5 6.5C0.367392 6.5 0.240222 6.55268 0.146454 6.64645C0.0526857 6.74021 0 6.86739 0 7C0 7.13261 0.0526857 7.25979 0.146454 7.35355C0.240222 7.44732 0.367392 7.5 0.5 7.5H1.5C1.63261 7.5 1.75979 7.44732 1.85356 7.35355C1.94733 7.25979 2 7.13261 2 7C2 6.86739 1.94733 6.74021 1.85356 6.64645C1.75979 6.55268 1.63261 6.5 1.5 6.5H0.5Z" fill="#36A9E1"/>
<path fill-rule="evenodd" clip-rule="evenodd" d="M0.610031 2.99998C0.46865 2.99515 0.330243 3.04129 0.220032 3.12997C0.170502 3.16509 0.130111 3.21156 0.102234 3.2655C0.0743566 3.31943 0.0598145 3.37927 0.0598145 3.43998C0.0598145 3.50069 0.0743566 3.56052 0.102234 3.61446C0.130111 3.66839 0.170502 3.71486 0.220032 3.74998L1.01004 4.36998C1.12025 4.45867 1.25866 4.5048 1.40004 4.49998C1.54117 4.50307 1.679 4.45713 1.79004 4.36998C1.84163 4.33637 1.88401 4.29041 1.91335 4.23627C1.94268 4.18214 1.95804 4.12155 1.95804 4.05997C1.95804 3.9984 1.94268 3.93781 1.91335 3.88367C1.88401 3.82954 1.84163 3.78359 1.79004 3.74998L1.01004 3.11998C0.892896 3.03839 0.752744 2.99634 0.610031 2.99998Z" fill="#36A9E1"/>
<path fill-rule="evenodd" clip-rule="evenodd" d="M1.38005 9C1.30852 9.00122 1.23796 9.01691 1.17265 9.04613C1.10735 9.07535 1.04863 9.11748 1.00005 9.17L0.210052 10C0.105326 10.1128 0.0471191 10.2611 0.0471191 10.415C0.0471191 10.5689 0.105326 10.7172 0.210052 10.83C0.312627 10.9358 0.45275 10.9968 0.600052 11C0.672466 11.0008 0.74431 10.9871 0.81131 10.9596C0.878309 10.9321 0.939095 10.8915 0.990051 10.84L1.78004 10C1.88194 9.88776 1.93839 9.74159 1.93839 9.59C1.93839 9.43841 1.88194 9.29225 1.78004 9.18C1.73008 9.12319 1.66854 9.07773 1.59955 9.04668C1.53055 9.01563 1.45571 8.99972 1.38005 9Z" fill="#36A9E1"/>
<path fill-rule="evenodd" clip-rule="evenodd" d="M16.5 6.5C16.3674 6.5 16.2402 6.55268 16.1465 6.64645C16.0527 6.74021 16 6.86739 16 7C16 7.13261 16.0527 7.25979 16.1465 7.35355C16.2402 7.44732 16.3674 7.5 16.5 7.5H17.5C17.6326 7.5 17.7598 7.44732 17.8536 7.35355C17.9473 7.25979 18 7.13261 18 7C17.9974 6.86819 17.9439 6.7425 17.8507 6.64928C17.7575 6.55606 17.6318 6.50256 17.5 6.5H16.5Z" fill="#36A9E1"/>
<path fill-rule="evenodd" clip-rule="evenodd" d="M17.38 2.99995C17.2438 2.99849 17.1107 3.04053 17 3.11995L16.21 3.74995C16.1605 3.78506 16.1201 3.83153 16.0922 3.88547C16.0644 3.9394 16.0498 3.99923 16.0498 4.05995C16.0498 4.12066 16.0644 4.18049 16.0922 4.23443C16.1201 4.28837 16.1605 4.33484 16.21 4.36995C16.3211 4.4571 16.4589 4.50304 16.6 4.49995C16.7394 4.50147 16.8757 4.45952 16.99 4.37995L17.78 3.74995C17.8296 3.71483 17.87 3.66836 17.8978 3.61443C17.9257 3.56049 17.9403 3.50066 17.9403 3.43995C17.9403 3.37924 17.9257 3.3194 17.8978 3.26547C17.87 3.21153 17.8296 3.16506 17.78 3.12995C17.6659 3.04133 17.5244 2.99535 17.38 2.99995Z" fill="#36A9E1"/>
<path fill-rule="evenodd" clip-rule="evenodd" d="M16.6101 9C16.4597 9.00268 16.3163 9.06363 16.2101 9.17C16.1088 9.28647 16.053 9.43563 16.053 9.59C16.053 9.74436 16.1088 9.89353 16.2101 10.01L17.0001 10.84C17.051 10.8915 17.1118 10.9321 17.1788 10.9596C17.2458 10.9871 17.3176 11.0008 17.3901 11C17.5374 10.9968 17.6775 10.9358 17.7801 10.83C17.882 10.7178 17.9384 10.5716 17.9384 10.42C17.9384 10.2684 17.882 10.1222 17.7801 10.01L16.9901 9.17C16.89 9.06661 16.7539 9.00573 16.6101 9Z" fill="#36A9E1"/>
</g>
<defs>
<clipPath id="clip0_52_148">
<rect width="18" height="18" fill="white"/>
</clipPath>
</defs>
</svg>
