<svg width="17" height="18" viewBox="0 0 17 18" fill="none" xmlns="http://www.w3.org/2000/svg">
<g clip-path="url(#clip0_50_128)">
<path fill-rule="evenodd" clip-rule="evenodd" d="M12.5 3C12.3674 3 12.2402 3.05268 12.1464 3.14645C12.0527 3.24021 12 3.36739 12 3.5C12.0026 3.63181 12.0561 3.7575 12.1493 3.85072C12.2425 3.94393 12.3682 3.99744 12.5 4H13.5C13.6326 4 13.7598 3.94732 13.8535 3.85355C13.9473 3.75979 14 3.63261 14 3.5C14 3.36739 13.9473 3.24021 13.8535 3.14645C13.7598 3.05268 13.6326 3 13.5 3H12.5Z" fill="#36A9E1"/>
<path fill-rule="evenodd" clip-rule="evenodd" d="M7.03 1.24052e-06C6.96118 -0.0182296 6.8888 -0.0182296 6.81999 1.24052e-06C6.70934 0.0668384 6.62755 0.172493 6.59058 0.296365C6.5536 0.420237 6.56408 0.553442 6.61999 0.669999L7.06999 1.67C7.10538 1.75029 7.16256 1.81907 7.23501 1.86855C7.30747 1.91804 7.39233 1.94625 7.47999 1.95C7.55406 1.94887 7.62652 1.92817 7.69 1.89C7.79898 1.82162 7.87935 1.71594 7.91615 1.59266C7.95295 1.46938 7.94366 1.33692 7.89 1.21999L7.42999 0.219995C7.389 0.150982 7.3303 0.094196 7.25996 0.0555127C7.18963 0.0168295 7.11023 -0.00233637 7.03 1.24052e-06Z" fill="#36A9E1"/>
<path fill-rule="evenodd" clip-rule="evenodd" d="M11.31 1.89155e-05C11.2032 -0.00365922 11.0971 0.0190554 11.0012 0.0661505C10.9052 0.113246 10.8224 0.183265 10.76 0.270016L10.15 1.27002C10.1155 1.33101 10.0955 1.39907 10.0914 1.46899C10.0872 1.53891 10.0991 1.60885 10.1262 1.67348C10.1532 1.73811 10.1946 1.79572 10.2472 1.84191C10.2999 1.8881 10.3624 1.92165 10.43 1.94001C10.5144 1.97977 10.6066 2.00027 10.7 2.00002C10.8061 2.00181 10.9111 1.97715 11.0054 1.92827C11.0996 1.87939 11.1803 1.80782 11.24 1.72001L11.85 0.720012C11.8845 0.659675 11.9049 0.592298 11.9097 0.522938C11.9144 0.453577 11.9034 0.384037 11.8774 0.319553C11.8514 0.255069 11.8112 0.197316 11.7596 0.150631C11.7081 0.103946 11.6467 0.0695445 11.58 0.0500143C11.4946 0.0143108 11.4025 -0.0027316 11.31 1.89155e-05Z" fill="#36A9E1"/>
<path fill-rule="evenodd" clip-rule="evenodd" d="M5 3C4.86739 3 4.74021 3.05268 4.64644 3.14645C4.55267 3.24021 4.5 3.36739 4.5 3.5C4.50256 3.63181 4.55606 3.7575 4.64928 3.85072C4.7425 3.94393 4.86819 3.99744 5 4H6C6.13261 4 6.25978 3.94732 6.35355 3.85355C6.44731 3.75979 6.5 3.63261 6.5 3.5C6.5 3.36739 6.44731 3.24021 6.35355 3.14645C6.25978 3.05268 6.13261 3 6 3H5Z" fill="#36A9E1"/>
<path fill-rule="evenodd" clip-rule="evenodd" d="M0.589996 8.50005C0.516938 8.49462 0.443529 8.50384 0.374084 8.52718C0.30464 8.55051 0.240553 8.58748 0.185593 8.63592C0.130632 8.68436 0.0859035 8.74329 0.0540314 8.80925C0.0221593 8.87521 0.00379475 8.94688 0 9.02004V17.47C0.00383568 17.5436 0.0221465 17.6157 0.053894 17.6822C0.0856416 17.7487 0.130204 17.8082 0.185013 17.8575C0.239822 17.9067 0.303795 17.9447 0.373291 17.9691C0.442787 17.9936 0.516432 18.0041 0.589996 18H2.92C3.06689 18.0055 3.21003 17.953 3.31854 17.8538C3.42705 17.7547 3.49223 17.6168 3.5 17.47V9.02004C3.49617 8.94778 3.47811 8.87699 3.44687 8.81171C3.41562 8.74644 3.3718 8.68798 3.31792 8.63967C3.26404 8.59136 3.20116 8.55416 3.13287 8.53021C3.06459 8.50625 2.99225 8.496 2.92 8.50005H0.589996Z" fill="#36A9E1"/>
<path fill-rule="evenodd" clip-rule="evenodd" d="M8.20001 3.00005C8.05945 3.00005 7.92464 3.05588 7.82524 3.15527C7.72585 3.25467 7.67001 3.38948 7.67001 3.53004C7.66981 5.08464 7.19536 6.60218 6.31001 7.88004C5.78732 8.37774 5.17705 8.77442 4.51001 9.05004V17.05C5.89772 17.6049 7.37563 17.8998 8.87001 17.92H12.31C12.5784 17.9305 12.8453 17.8744 13.0868 17.7568C13.3284 17.6393 13.5371 17.4638 13.6945 17.2461C13.8518 17.0283 13.9529 16.7751 13.9888 16.5089C14.0247 16.2426 13.9942 15.9716 13.9 15.72C14.1116 15.6512 14.3067 15.5396 14.4732 15.3921C14.6397 15.2446 14.7741 15.0644 14.8679 14.8627C14.9617 14.661 15.013 14.4421 15.0185 14.2197C15.024 13.9973 14.9837 13.7762 14.9 13.57C15.1613 13.4942 15.3994 13.3538 15.5921 13.1617C15.7848 12.9696 15.9261 12.7321 16.0028 12.471C16.0796 12.2099 16.0893 11.9337 16.0311 11.6679C15.9729 11.4021 15.8488 11.1552 15.67 10.95C15.8187 10.7785 15.9301 10.5779 15.9973 10.361C16.0644 10.1441 16.0858 9.91562 16.06 9.69004C15.9995 9.29 15.7958 8.92554 15.4868 8.66437C15.1778 8.40319 14.7845 8.26307 14.38 8.27004H10.31C10.6695 7.25219 10.8489 6.17948 10.84 5.10004C10.8321 4.51913 10.5958 3.96468 10.1822 3.55669C9.7686 3.1487 9.21099 2.91999 8.63002 2.92004L8.20001 3.00005Z" fill="#36A9E1"/>
</g>
<defs>
<clipPath id="clip0_50_128">
<rect width="16.12" height="18" fill="white"/>
</clipPath>
</defs>
</svg>
