<svg width="19" height="18" viewBox="0 0 19 18" fill="none" xmlns="http://www.w3.org/2000/svg">
<g clip-path="url(#clip0_52_98)">
<path fill-rule="evenodd" clip-rule="evenodd" d="M9.09998 5.91511e-06C8.9998 -0.000467348 8.90153 0.0274675 8.81658 0.0805647C8.73162 0.133662 8.66345 0.20975 8.61998 0.300009L6.09998 5.50001L0.459981 6.33001C0.361249 6.34605 0.268909 6.3892 0.193265 6.45465C0.117621 6.5201 0.0616472 6.60527 0.0315754 6.70067C0.00150367 6.79607 -0.00148414 6.89795 0.0229542 6.99495C0.0473926 7.09194 0.0982956 7.18024 0.16998 7.25001L4.24998 11.25L3.24998 16.9C3.23529 16.978 3.23795 17.0582 3.25779 17.135C3.27762 17.2118 3.31414 17.2833 3.36474 17.3444C3.41533 17.4055 3.47877 17.4547 3.55054 17.4885C3.62231 17.5223 3.70065 17.5399 3.77998 17.54C3.86663 17.538 3.95186 17.5175 4.02998 17.48L9.02998 14.8L14.03 17.48C14.1041 17.5187 14.1864 17.5392 14.27 17.54C14.3488 17.5382 14.4262 17.5195 14.4971 17.4852C14.5681 17.4508 14.6308 17.4016 14.681 17.3409C14.7313 17.2803 14.7679 17.2095 14.7884 17.1334C14.809 17.0573 14.8129 16.9777 14.8 16.9L13.8 11.25L17.88 7.25001C17.9548 7.18002 18.0082 7.09018 18.0339 6.99099C18.0596 6.89179 18.0565 6.78734 18.0251 6.68982C17.9936 6.5923 17.935 6.50574 17.8562 6.44026C17.7774 6.37478 17.6816 6.33307 17.58 6.32001L11.95 5.49L9.41998 0.340002C9.39684 0.262308 9.35584 0.191105 9.30028 0.132071C9.24472 0.073037 9.17613 0.027812 9.09998 5.91511e-06Z" fill="#36A9E1"/>
</g>
<defs>
<clipPath id="clip0_52_98">
<rect width="18.19" height="17.5" fill="white"/>
</clipPath>
</defs>
</svg>
