<svg width="19" height="18" viewBox="0 0 19 18" fill="none" xmlns="http://www.w3.org/2000/svg">
<g clip-path="url(#clip0_52_140)">
<path fill-rule="evenodd" clip-rule="evenodd" d="M9.23999 7L7.48999 8.34L8.15999 10.5H10.32L10.99 8.34L9.23999 7Z" fill="#36A9E1"/>
<path fill-rule="evenodd" clip-rule="evenodd" d="M6.52002 0.5C5.08753 0.922351 3.77972 1.68782 2.71002 2.73C2.34316 3.09005 2.00855 3.48154 1.71002 3.9L2.98003 4.07C3.08125 4.07822 3.17757 4.11707 3.25617 4.18138C3.33477 4.24569 3.39193 4.33241 3.42003 4.43L4.35002 7.18C4.38324 7.28686 4.38179 7.4015 4.34586 7.50748C4.30993 7.61347 4.24138 7.70537 4.15003 7.77L1.73003 9.47C1.63503 9.53306 1.52402 9.56775 1.41002 9.57C1.31865 9.57038 1.22886 9.5462 1.15003 9.5L0.0300317 8.92V9.05C0.0285857 10.9966 0.679973 12.8874 1.88002 14.42L2.43003 13.3C2.47658 13.2108 2.54712 13.1364 2.6337 13.0852C2.72028 13.0339 2.81945 13.0079 2.92003 13.01H5.92003C6.03355 13.0077 6.1449 13.0413 6.23825 13.1059C6.33161 13.1705 6.40221 13.2629 6.44004 13.37L7.36003 16.12C7.39041 16.214 7.39336 16.3147 7.36856 16.4104C7.34377 16.506 7.29226 16.5926 7.22003 16.66L6.29003 17.52C8.23809 18.1646 10.342 18.1646 12.29 17.52L11.37 16.66C11.2957 16.5941 11.2427 16.5075 11.2177 16.4113C11.1928 16.3152 11.1971 16.2137 11.23 16.12L12.15 13.37C12.1865 13.2621 12.2568 13.1688 12.3505 13.1039C12.4441 13.0391 12.5562 13.0062 12.67 13.01H15.67C15.7706 13.0079 15.8698 13.0339 15.9564 13.0852C16.0429 13.1364 16.1135 13.2108 16.16 13.3L16.71 14.42C17.9101 12.8874 18.5615 10.9966 18.56 9.05V8.92L17.43 9.5C17.3535 9.54295 17.2677 9.56695 17.18 9.57C17.0658 9.56889 16.9545 9.53411 16.86 9.47L14.37 7.76C14.2783 7.69812 14.2091 7.60807 14.1731 7.50344C14.137 7.39881 14.1359 7.28529 14.17 7.18L15.1 4.43C15.1281 4.33241 15.1853 4.24569 15.2639 4.18138C15.3425 4.11707 15.4388 4.07822 15.54 4.07L16.81 3.9C16.5115 3.48154 16.1769 3.09005 15.81 2.73C14.7403 1.68782 13.4325 0.922351 12 0.5L12.23 1.72C12.2461 1.8186 12.234 1.91973 12.195 2.01173C12.1561 2.10374 12.092 2.18287 12.01 2.24L9.59003 3.94C9.49862 4.00278 9.39089 4.03753 9.28003 4.04C9.16585 4.0389 9.05452 4.00411 8.96002 3.94L6.54003 2.24C6.45717 2.18372 6.39233 2.10471 6.3533 2.01246C6.31428 1.92021 6.30272 1.81866 6.32002 1.72L6.52002 0.5ZM9.24002 6.06C9.35421 6.0611 9.46553 6.0959 9.56003 6.16L11.98 7.86C12.0714 7.92463 12.1399 8.01653 12.1759 8.12251C12.2118 8.2285 12.2132 8.34313 12.18 8.45L11.26 11.21C11.2209 11.3162 11.15 11.4078 11.0569 11.4722C10.9639 11.5366 10.8532 11.5708 10.74 11.57H7.74002C7.62684 11.5708 7.51618 11.5366 7.42311 11.4722C7.33005 11.4078 7.25913 11.3162 7.22003 11.21L6.30002 8.45C6.26348 8.34338 6.26329 8.22765 6.29947 8.12091C6.33566 8.01417 6.40619 7.92242 6.50003 7.86L8.92003 6.16C9.01426 6.09535 9.12574 6.0605 9.24002 6.06Z" fill="#36A9E1"/>
<path fill-rule="evenodd" clip-rule="evenodd" d="M17.05 5L15.67 5.18L14.99 7.23L16.78 8.5L17.99 7.85C17.8473 6.85196 17.5291 5.88707 17.05 5Z" fill="#36A9E1"/>
<path fill-rule="evenodd" clip-rule="evenodd" d="M12.68 14L12 16.06L13 17C13.8742 16.5651 14.674 15.9948 15.37 15.31L15.45 15.22L14.85 14H12.68Z" fill="#36A9E1"/>
<path fill-rule="evenodd" clip-rule="evenodd" d="M3.09 14L2.48999 15.22L2.58 15.31C3.28515 16.0018 4.09936 16.5727 4.98999 17L5.98999 16.06L5.31 14H3.09Z" fill="#36A9E1"/>
<path fill-rule="evenodd" clip-rule="evenodd" d="M1.44 5C0.960657 5.88781 0.639198 6.85215 0.48999 7.85L1.70999 8.5L3.48999 7.23L2.81 5.18L1.44 5Z" fill="#36A9E1"/>
<path fill-rule="evenodd" clip-rule="evenodd" d="M9.25 0C8.74472 0.00142911 8.24014 0.038186 7.73999 0.110001L7.5 1.34L9.25 2.5L10.99 1.34L10.75 0.110001C10.2532 0.038553 9.75195 0.00179676 9.25 0Z" fill="#36A9E1"/>
</g>
<defs>
<clipPath id="clip0_52_140">
<rect width="18.49" height="18" fill="white"/>
</clipPath>
</defs>
</svg>
