<svg width="18" height="18" viewBox="0 0 18 18" fill="none" xmlns="http://www.w3.org/2000/svg">
<g clip-path="url(#clip0_52_103)">
<path fill-rule="evenodd" clip-rule="evenodd" d="M2.06008 9.49999C1.98926 9.49992 1.91915 9.51405 1.85388 9.54153C1.78861 9.56901 1.72951 9.60928 1.68007 9.65999L0.160076 11.21C0.100805 11.2687 0.05566 11.3401 0.028057 11.4188C0.000454064 11.4975 -0.00888288 11.5815 0.000751444 11.6643C0.0103858 11.7472 0.0387398 11.8268 0.0836677 11.897C0.128596 11.9673 0.188918 12.0265 0.260075 12.07L1.77008 13C1.87831 12.6305 2.06602 12.2892 2.32007 12L3.91008 9.74999L2.13008 9.48999L2.06008 9.49999Z" fill="#36A9E1"/>
<path fill-rule="evenodd" clip-rule="evenodd" d="M14.8699 9C14.3838 9.43988 13.8694 9.84743 13.3299 10.22L10.4199 12.22L13.8099 17.22C13.862 17.2968 13.932 17.3597 14.0139 17.4032C14.0959 17.4468 14.1872 17.4697 14.2799 17.47C14.3539 17.4716 14.4275 17.4583 14.4962 17.4308C14.565 17.4033 14.6274 17.3622 14.6799 17.31L17.2099 14.93C17.2601 14.8823 17.3001 14.825 17.3275 14.7614C17.3548 14.6977 17.3689 14.6292 17.3689 14.56C17.3689 14.4908 17.3548 14.4223 17.3275 14.3586C17.3001 14.295 17.2601 14.2377 17.2099 14.19C17.1574 14.1378 17.095 14.0967 17.0262 14.0692C16.9575 14.0417 16.8839 14.0284 16.8099 14.03C16.6658 14.0298 16.5268 14.0833 16.4199 14.18L16.1999 14.39L15.6099 11.95L16.3199 11.28C16.3692 11.2308 16.4083 11.1723 16.435 11.108C16.4617 11.0436 16.4754 10.9747 16.4754 10.905C16.4754 10.8353 16.4617 10.7664 16.435 10.702C16.4083 10.6377 16.3692 10.5792 16.3199 10.53C16.2095 10.4326 16.0671 10.3792 15.9199 10.38C15.777 10.3761 15.6378 10.4261 15.5299 10.52L15.3099 10.73L14.8699 9Z" fill="#36A9E1"/>
<path fill-rule="evenodd" clip-rule="evenodd" d="M3.06003 0.5C2.98539 0.50025 2.91155 0.515415 2.84286 0.544609C2.77417 0.573803 2.71201 0.616435 2.66003 0.669998L0.160028 3.21C0.102218 3.27137 0.0584787 3.3446 0.0318615 3.42459C0.00524433 3.50459 -0.00361285 3.58943 0.00590634 3.67319C0.0154255 3.75696 0.0430963 3.83765 0.0869839 3.90964C0.130872 3.98162 0.189921 4.04317 0.260026 4.09L5.53003 7.5L7.62003 4.58C8.01707 4.0336 8.4479 3.51258 8.91002 3.02L7.06003 2.59L7.28003 2.37C7.38274 2.26216 7.44003 2.11893 7.44003 1.97C7.44003 1.82107 7.38274 1.67785 7.28003 1.57C7.22943 1.51807 7.16871 1.47708 7.10162 1.44955C7.03454 1.42203 6.96252 1.40857 6.89003 1.41C6.74591 1.4098 6.60688 1.46328 6.50003 1.56L5.80003 2.29L3.24003 1.69L3.46002 1.47C3.56506 1.36336 3.62395 1.21968 3.62395 1.07C3.62395 0.920315 3.56506 0.776636 3.46002 0.669998C3.40804 0.616435 3.34588 0.573803 3.27719 0.544609C3.2085 0.515415 3.13467 0.50025 3.06003 0.5Z" fill="#36A9E1"/>
<path fill-rule="evenodd" clip-rule="evenodd" d="M8.12991 14L5.72991 15.76C5.49035 15.9601 5.21077 16.1067 4.90991 16.19L5.82991 17.73C5.8775 17.8124 5.94605 17.8808 6.02859 17.9282C6.11113 17.9757 6.20472 18.0004 6.2999 18C6.37232 18.0008 6.44416 17.9871 6.51116 17.9596C6.57816 17.9321 6.63896 17.8915 6.68992 17.84L8.22991 16.28C8.29032 16.2212 8.33554 16.1486 8.36167 16.0685C8.3878 15.9884 8.39406 15.9031 8.37991 15.82L8.12991 14Z" fill="#36A9E1"/>
<path fill-rule="evenodd" clip-rule="evenodd" d="M15.7899 0C15.5467 0.00310499 15.3061 0.0505475 15.0799 0.139999C14.7799 0.269999 14.4899 0.400003 14.1999 0.550003C14.057 1.00948 14.0363 1.49826 14.1397 1.96819C14.2432 2.43813 14.4673 2.87301 14.7899 3.23C15.0041 3.46953 15.266 3.66173 15.5587 3.79432C15.8514 3.9269 16.1686 3.99696 16.4899 4C16.7527 3.99806 17.0132 3.9507 17.2599 3.86C17.3899 3.55 17.5199 3.24 17.6299 2.92C17.7684 2.53387 17.8006 2.11764 17.7232 1.7148C17.6458 1.31196 17.4617 0.937305 17.1899 0.629997C17.0125 0.434327 16.7965 0.277386 16.5556 0.168983C16.3147 0.0605813 16.0541 0.00305329 15.7899 0Z" fill="#36A9E1"/>
<path fill-rule="evenodd" clip-rule="evenodd" d="M12.98 1C11.2134 2.04098 9.6758 3.42886 8.45995 5.08L2.99995 12.68C2.71042 13.0029 2.55029 13.4213 2.55029 13.855C2.55029 14.2887 2.71042 14.7071 2.99995 15.03C3.30267 15.3129 3.69594 15.4792 4.10979 15.4994C4.52363 15.5195 4.9312 15.3922 5.25996 15.14L12.85 9.55C14.4771 8.3152 15.8377 6.76411 16.85 4.99H16.64C16.1472 4.99289 15.6588 4.89704 15.2037 4.70811C14.7485 4.51919 14.3358 4.24101 13.99 3.89C13.6299 3.50501 13.3541 3.04913 13.1802 2.55151C13.0063 2.05389 12.9381 1.52547 12.98 1ZM12.91 4.51C12.9809 4.50875 13.0514 4.52234 13.1168 4.54989C13.1823 4.57744 13.2412 4.61835 13.29 4.67C13.3878 4.77234 13.4423 4.90845 13.4423 5.05C13.4423 5.19156 13.3878 5.32766 13.29 5.43L11.02 7.73C10.969 7.78145 10.9082 7.82214 10.8412 7.84962C10.7742 7.87711 10.7024 7.89084 10.63 7.89C10.5606 7.89047 10.4918 7.87648 10.4281 7.84894C10.3644 7.82139 10.3071 7.78088 10.26 7.73C10.1592 7.62718 10.1027 7.48897 10.1027 7.345C10.1027 7.20104 10.1592 7.06281 10.26 6.96L12.53 4.66C12.6215 4.5706 12.7422 4.51733 12.87 4.51H12.91Z" fill="#36A9E1"/>
</g>
<defs>
<clipPath id="clip0_52_103">
<rect width="17.76" height="18" fill="white"/>
</clipPath>
</defs>
</svg>
